<svg width="5613" height="1889" xmlns="http://www.w3.org/2000/svg" xmlns:xlink="http://www.w3.org/1999/xlink" xml:space="preserve" overflow="hidden"><defs><filter id="fx0" x="-10%" y="-10%" width="120%" height="120%" filterUnits="userSpaceOnUse" primitiveUnits="userSpaceOnUse"><feComponentTransfer color-interpolation-filters="sRGB"><feFuncR type="discrete" tableValues="0 0"/><feFuncG type="discrete" tableValues="0 0"/><feFuncB type="discrete" tableValues="0 0"/><feFuncA type="linear" slope="0.34902" intercept="0"/></feComponentTransfer><feGaussianBlur stdDeviation="4.8119 4.8119"/></filter><clipPath id="clip1"><path d="M2329.1 1531.5 2329.1 1589.4 2165.5 1589.4 2165.5 1715.6 2329.1 1715.6 2329.1 1773.5 2474.5 1652.5ZM-154 739 5459 739 5459 2628-154 2628Z" fill-rule="evenodd" clip-rule="evenodd"/></clipPath></defs><g transform="translate(154 -739)"><path d="M2293.5 739.5 2293.5 2624.34" stroke="#A6A6A6" stroke-width="6.875" stroke-linejoin="round" stroke-miterlimit="10" stroke-dasharray="6.875 6.875" fill="none" fill-rule="evenodd"/><path d="M356 2132C356 1908.32 748.199 1727 1232 1727 1715.8 1727 2108 1908.32 2108 2132 2108 2355.68 1715.8 2537 1232 2537 748.199 2537 356 2355.68 356 2132Z" fill="#F2F2F2" fill-rule="evenodd" fill-opacity="0.368627"/><path d="M384 1101.83C384 1078.18 403.178 1059 426.834 1059L767.166 1059C790.822 1059 810 1078.18 810 1101.83L810 1273.17C810 1296.82 790.822 1316 767.166 1316L426.834 1316C403.178 1316 384 1296.82 384 1273.17Z" fill="#FFF1BD" fill-rule="evenodd"/><text fill="#866900" font-family="Pretendard,Pretendard_MSFontService,sans-serif" font-weight="700" font-size="64" transform="matrix(1 0 0 1 431.804 1211)">목표</text><text fill="#866900" font-family="Pretendard,Pretendard_MSFontService,sans-serif" font-weight="700" font-size="64" transform="matrix(1 0 0 1 557.846 1211)">스펙</text><text fill="#866900" font-family="Pretendard,Pretendard_MSFontService,sans-serif" font-weight="700" font-size="64" transform="matrix(1 0 0 1 683.888 1211)">Y*</text><path d="M814.5 1202.06 912.648 1202.06 912.648 1208.94 814.5 1208.94ZM908.065 1191.75 935.565 1205.5 908.065 1219.25Z" fill="#9DA8B6"/><path d="M936 1101.83C936 1078.18 955.178 1059 978.834 1059L1464.17 1059C1487.82 1059 1507 1078.18 1507 1101.83L1507 1273.17C1507 1296.82 1487.82 1316 1464.17 1316L978.834 1316C955.178 1316 936 1296.82 936 1273.17Z" fill="#FAD6D6" fill-rule="evenodd"/><text fill="#953735" font-family="Pretendard,Pretendard_MSFontService,sans-serif" font-weight="700" font-size="64" transform="matrix(1 0 0 1 1132.67 1172)">Y </text><text fill="#953735" font-family="Pretendard,Pretendard_MSFontService,sans-serif" font-weight="700" font-size="64" transform="matrix(1 0 0 1 1192.26 1172)">→ </text><text fill="#953735" font-family="Pretendard,Pretendard_MSFontService,sans-serif" font-weight="700" font-size="64" transform="matrix(1 0 0 1 1266.16 1172)">X</text><text fill="#953735" font-family="Pretendard,Pretendard_MSFontService,sans-serif" font-weight="700" font-size="64" transform="matrix(1 0 0 1 1075.11 1249)">역회귀</text><text fill="#953735" font-family="Pretendard,Pretendard_MSFontService,sans-serif" font-weight="700" font-size="64" transform="matrix(1 0 0 1 1241.83 1249)"> </text><text fill="#953735" font-family="Pretendard,Pretendard_MSFontService,sans-serif" font-weight="700" font-size="64" transform="matrix(1 0 0 1 1256.72 1249)">모델</text><path d="M1512.5 1202.06 1606.47 1202.06 1606.47 1208.94 1512.5 1208.94ZM1601.89 1191.75 1629.39 1205.5 1601.89 1219.25Z" fill="#9DA8B6"/><path d="M1629 1100.17C1629 1076.33 1648.33 1057 1672.17 1057L1952.83 1057C1976.67 1057 1996 1076.33 1996 1100.17L1996 1272.83C1996 1296.67 1976.67 1316 1952.83 1316L1672.17 1316C1648.33 1316 1629 1296.67 1629 1272.83Z" fill="#E8E8E8" fill-rule="evenodd"/><text fill="#404040" font-family="Pretendard,Pretendard_MSFontService,sans-serif" font-weight="700" font-size="64" transform="matrix(1 0 0 1 1756.63 1171)">평균</text><text fill="#404040" font-family="Pretendard,Pretendard_MSFontService,sans-serif" font-weight="700" font-size="64" transform="matrix(1 0 0 1 1699.34 1248)">레시피</text><text fill="#404040" font-family="Pretendard,Pretendard_MSFontService,sans-serif" font-weight="700" font-size="64" transform="matrix(1 0 0 1 1880.95 1248)">X</text><text fill="#632523" font-family="Pretendard,Pretendard_MSFontService,sans-serif" font-weight="700" font-size="64" transform="matrix(1 0 0 1 561.896 1521)">문제</text><text fill="#632523" font-family="Pretendard,Pretendard_MSFontService,sans-serif" font-weight="700" font-size="64" transform="matrix(1 0 0 1 673.042 1521)"> </text><text fill="#632523" font-family="Pretendard,Pretendard_MSFontService,sans-serif" font-weight="700" font-size="64" transform="matrix(1 0 0 1 687.938 1521)">: </text><text fill="#632523" font-family="Pretendard,Pretendard_MSFontService,sans-serif" font-weight="700" font-size="64" transform="matrix(1 0 0 1 721.167 1521)">동일한</text><text fill="#632523" font-family="Pretendard,Pretendard_MSFontService,sans-serif" font-weight="700" font-size="64" transform="matrix(1 0 0 1 887.886 1521)"> </text><text fill="#632523" font-family="Pretendard,Pretendard_MSFontService,sans-serif" font-weight="700" font-size="64" transform="matrix(1 0 0 1 902.781 1521)">Y*</text><text fill="#632523" font-family="Pretendard,Pretendard_MSFontService,sans-serif" font-weight="700" font-size="64" transform="matrix(1 0 0 1 981.844 1521)">를</text><text fill="#632523" font-family="Pretendard,Pretendard_MSFontService,sans-serif" font-weight="700" font-size="64" transform="matrix(1 0 0 1 1037.42 1521)"> </text><text fill="#632523" font-family="Pretendard,Pretendard_MSFontService,sans-serif" font-weight="700" font-size="64" transform="matrix(1 0 0 1 1052.31 1521)">만족하는</text><text fill="#632523" font-family="Pretendard,Pretendard_MSFontService,sans-serif" font-weight="700" font-size="64" transform="matrix(1 0 0 1 1274.6 1521)"> </text><text fill="#632523" font-family="Pretendard,Pretendard_MSFontService,sans-serif" font-weight="700" font-size="64" transform="matrix(1 0 0 1 1289.5 1521)">X</text><text fill="#632523" font-family="Pretendard,Pretendard_MSFontService,sans-serif" font-weight="700" font-size="64" transform="matrix(1 0 0 1 1333.61 1521)">가</text><text fill="#632523" font-family="Pretendard,Pretendard_MSFontService,sans-serif" font-weight="700" font-size="64" transform="matrix(1 0 0 1 1389.19 1521)"> </text><text fill="#632523" font-family="Pretendard,Pretendard_MSFontService,sans-serif" font-weight="700" font-size="64" transform="matrix(1 0 0 1 1404.08 1521)">여러</text><text fill="#632523" font-family="Pretendard,Pretendard_MSFontService,sans-serif" font-weight="700" font-size="64" transform="matrix(1 0 0 1 1515.23 1521)"> </text><text fill="#632523" font-family="Pretendard,Pretendard_MSFontService,sans-serif" font-weight="700" font-size="64" transform="matrix(1 0 0 1 1530.13 1521)">개</text><text fill="#632523" font-family="Pretendard,Pretendard_MSFontService,sans-serif" font-weight="700" font-size="64" transform="matrix(1 0 0 1 1585.7 1521)"> </text><text fill="#632523" font-family="Pretendard,Pretendard_MSFontService,sans-serif" font-weight="700" font-size="64" transform="matrix(1 0 0 1 1600.59 1521)">존재</text><text fill="#632523" font-family="Pretendard,Pretendard_MSFontService,sans-serif" font-weight="700" font-size="64" transform="matrix(1 0 0 1 1711.74 1521)">하므로</text><text fill="#632523" font-family="Pretendard,Pretendard_MSFontService,sans-serif" font-weight="700" font-size="64" transform="matrix(1 0 0 1 561.896 1636)">          </text><text fill="#632523" font-family="Pretendard,Pretendard_MSFontService,sans-serif" font-weight="700" font-size="64" transform="matrix(1 0 0 1 710.854 1636)">평균</text><text fill="#632523" font-family="Pretendard,Pretendard_MSFontService,sans-serif" font-weight="700" font-size="64" transform="matrix(1 0 0 1 822 1636)"> </text><text fill="#632523" font-family="Pretendard,Pretendard_MSFontService,sans-serif" font-weight="700" font-size="64" transform="matrix(1 0 0 1 836.896 1636)">X</text><text fill="#632523" font-family="Pretendard,Pretendard_MSFontService,sans-serif" font-weight="700" font-size="64" transform="matrix(1 0 0 1 881.011 1636)">가</text><text fill="#632523" font-family="Pretendard,Pretendard_MSFontService,sans-serif" font-weight="700" font-size="64" transform="matrix(1 0 0 1 936.584 1636)"> </text><text fill="#632523" font-family="Pretendard,Pretendard_MSFontService,sans-serif" font-weight="700" font-size="64" transform="matrix(1 0 0 1 951.479 1636)">실제</text><text fill="#632523" font-family="Pretendard,Pretendard_MSFontService,sans-serif" font-weight="700" font-size="64" transform="matrix(1 0 0 1 1062.63 1636)"> </text><text fill="#632523" font-family="Pretendard,Pretendard_MSFontService,sans-serif" font-weight="700" font-size="64" transform="matrix(1 0 0 1 1077.52 1636)">valid recipe</text><text fill="#632523" font-family="Pretendard,Pretendard_MSFontService,sans-serif" font-weight="700" font-size="64" transform="matrix(1 0 0 1 1424.14 1636)">라는</text><text fill="#632523" font-family="Pretendard,Pretendard_MSFontService,sans-serif" font-weight="700" font-size="64" transform="matrix(1 0 0 1 1535.28 1636)"> </text><text fill="#632523" font-family="Pretendard,Pretendard_MSFontService,sans-serif" font-weight="700" font-size="64" transform="matrix(1 0 0 1 1550.18 1636)">보장</text><text fill="#632523" font-family="Pretendard,Pretendard_MSFontService,sans-serif" font-weight="700" font-size="64" transform="matrix(1 0 0 1 1661.32 1636)"> </text><text fill="#632523" font-family="Pretendard,Pretendard_MSFontService,sans-serif" font-weight="700" font-size="64" transform="matrix(1 0 0 1 1676.22 1636)">불가</text><path d="M593 1926.67C593 1909.73 606.73 1896 623.667 1896L863.333 1896C880.27 1896 894 1909.73 894 1926.67L894 2049.33C894 2066.27 880.27 2080 863.333 2080L623.667 2080C606.73 2080 593 2066.27 593 2049.33Z" stroke="#7F7F7F" stroke-width="5.72917" stroke-linejoin="round" stroke-miterlimit="10" fill="#F2F2F2" fill-rule="evenodd"/><text fill="#595959" font-family="Pretendard,Pretendard_MSFontService,sans-serif" font-weight="700" font-size="64" transform="matrix(1 0 0 1 706.824 2011)">X1</text><path d="M743.5 2080.5 1165.14 2230.79" stroke="#9DA8B6" stroke-width="6.875" stroke-linejoin="round" stroke-miterlimit="10" fill="none" fill-rule="evenodd"/><path d="M1011 1926.67C1011 1909.73 1024.73 1896 1041.67 1896L1280.33 1896C1297.27 1896 1311 1909.73 1311 1926.67L1311 2049.33C1311 2066.27 1297.27 2080 1280.33 2080L1041.67 2080C1024.73 2080 1011 2066.27 1011 2049.33Z" stroke="#7F7F7F" stroke-width="5.72917" stroke-linejoin="round" stroke-miterlimit="10" fill="#F2F2F2" fill-rule="evenodd"/><text fill="#595959" font-family="Pretendard,Pretendard_MSFontService,sans-serif" font-weight="700" font-size="64" transform="matrix(1 0 0 1 1119.71 2011)">X2</text><path d="M1161.5 2080.5 1165.68 2230.79" stroke="#9DA8B6" stroke-width="6.875" stroke-linejoin="round" stroke-miterlimit="10" fill="none" fill-rule="evenodd"/><path d="M1428 1926.67C1428 1909.73 1441.73 1896 1458.67 1896L1698.33 1896C1715.27 1896 1729 1909.73 1729 1926.67L1729 2049.33C1729 2066.27 1715.27 2080 1698.33 2080L1458.67 2080C1441.73 2080 1428 2066.27 1428 2049.33Z" stroke="#7F7F7F" stroke-width="5.72917" stroke-linejoin="round" stroke-miterlimit="10" fill="#F2F2F2" fill-rule="evenodd"/><text fill="#595959" font-family="Pretendard,Pretendard_MSFontService,sans-serif" font-weight="700" font-size="64" transform="matrix(1 0 0 1 1536.31 2011)">X3</text><path d="M0 0 413.29 150.288" stroke="#9DA8B6" stroke-width="6.875" stroke-linejoin="round" stroke-miterlimit="10" fill="none" fill-rule="evenodd" transform="matrix(-1 0 0 1 1578.79 2080.5)"/><text fill="#626C7B" font-family="Pretendard,Pretendard_MSFontService,sans-serif" font-weight="700" font-size="116" transform="matrix(1 0 0 1 1853.09 2021)">…</text><path d="M936 2263.33C936 2244.92 950.924 2230 969.334 2230L1361.67 2230C1380.08 2230 1395 2244.92 1395 2263.33L1395 2396.67C1395 2415.08 1380.08 2430 1361.67 2430L969.334 2430C950.924 2430 936 2415.08 936 2396.67Z" fill="#FFF1BD" fill-rule="evenodd"/><text fill="#866900" font-family="Pretendard,Pretendard_MSFontService,sans-serif" font-weight="700" font-size="67" transform="matrix(1 0 0 1 1058.28 2354)">같은</text><text fill="#866900" font-family="Pretendard,Pretendard_MSFontService,sans-serif" font-weight="700" font-size="67" transform="matrix(1 0 0 1 1189.48 2354)">Y*</text><text fill="#1F4068" font-family="Pretendard,Pretendard_MSFontService,sans-serif" font-weight="700" font-size="92" transform="matrix(1 0 0 1 2986.54 1173)">&lt;  </text><text fill="#1F4068" font-family="Pretendard,Pretendard_MSFontService,sans-serif" font-weight="700" font-size="92" transform="matrix(1 0 0 1 3089.09 1173)">현재</text><text fill="#1F4068" font-family="Pretendard,Pretendard_MSFontService,sans-serif" font-weight="700" font-size="92" transform="matrix(1 0 0 1 3247.22 1173)"> </text><text fill="#1F4068" font-family="Pretendard,Pretendard_MSFontService,sans-serif" font-weight="700" font-size="92" transform="matrix(1 0 0 1 3268.41 1173)">방식</text><text fill="#1F4068" font-family="Pretendard,Pretendard_MSFontService,sans-serif" font-weight="700" font-size="92" transform="matrix(1 0 0 1 3426.54 1173)"> </text><text fill="#1F4068" font-family="Pretendard,Pretendard_MSFontService,sans-serif" font-weight="700" font-size="92" transform="matrix(1 0 0 1 3447.74 1173)">: </text><text fill="#1F4068" font-family="Pretendard,Pretendard_MSFontService,sans-serif" font-weight="700" font-size="92" transform="matrix(1 0 0 1 3494.72 1173)">학습된</text><text fill="#1F4068" font-family="Pretendard,Pretendard_MSFontService,sans-serif" font-weight="700" font-size="92" transform="matrix(1 0 0 1 3731.9 1173)"> </text><text fill="#1F4068" font-family="Pretendard,Pretendard_MSFontService,sans-serif" font-weight="700" font-size="92" transform="matrix(1 0 0 1 3753.1 1173)">X </text><text fill="#1F4068" font-family="Pretendard,Pretendard_MSFontService,sans-serif" font-weight="700" font-size="92" transform="matrix(1 0 0 1 3837.32 1173)">→ </text><text fill="#1F4068" font-family="Pretendard,Pretendard_MSFontService,sans-serif" font-weight="700" font-size="92" transform="matrix(1 0 0 1 3943.31 1173)">Y Forward Surrogate</text><text fill="#1F4068" font-family="Pretendard,Pretendard_MSFontService,sans-serif" font-weight="700" font-size="92" transform="matrix(1 0 0 1 4833.05 1173)"> </text><text fill="#1F4068" font-family="Pretendard,Pretendard_MSFontService,sans-serif" font-weight="700" font-size="92" transform="matrix(1 0 0 1 4854.25 1173)">사용</text><text fill="#1F4068" font-family="Pretendard,Pretendard_MSFontService,sans-serif" font-weight="700" font-size="92" transform="matrix(1 0 0 1 5012.37 1173)">  </text><text fill="#1F4068" font-family="Pretendard,Pretendard_MSFontService,sans-serif" font-weight="700" font-size="92" transform="matrix(1 0 0 1 5054.77 1173)">&gt;</text><path d="M2584 1363.53C2584 1335.62 2606.62 1313 2634.53 1313L3034.47 1313C3062.38 1313 3085 1335.62 3085 1363.53L3085 1730.47C3085 1758.38 3062.38 1781 3034.47 1781L2634.53 1781C2606.62 1781 2584 1758.38 2584 1730.47Z" fill="#FFF1BD" fill-rule="evenodd"/><text fill="#1F4068" font-family="Pretendard,Pretendard_MSFontService,sans-serif" font-weight="700" font-size="67" transform="matrix(1 0 0 1 2692.23 1462)">목표</text><text fill="#1F4068" font-family="Pretendard,Pretendard_MSFontService,sans-serif" font-weight="700" font-size="67" transform="matrix(1 0 0 1 2823.43 1462)">spec</text><text fill="#2A313A" font-family="Pretendard,Pretendard_MSFontService,sans-serif" font-weight="400" font-size="55" transform="matrix(1 0 0 1 2688.22 1588)">Y* · </text><text fill="#2A313A" font-family="Pretendard,Pretendard_MSFontService,sans-serif" font-weight="400" font-size="55" transform="matrix(1 0 0 1 2790.2 1588)">허용범위</text><text fill="#2A313A" font-family="Pretendard,Pretendard_MSFontService,sans-serif" font-weight="400" font-size="55" transform="matrix(1 0 0 1 2694.8 1654)">이산</text><text fill="#2A313A" font-family="Pretendard,Pretendard_MSFontService,sans-serif" font-weight="400" font-size="55" transform="matrix(1 0 0 1 2789.9 1654)"> </text><text fill="#2A313A" font-family="Pretendard,Pretendard_MSFontService,sans-serif" font-weight="400" font-size="55" transform="matrix(1 0 0 1 2803.65 1654)">Lg </text><text fill="#2A313A" font-family="Pretendard,Pretendard_MSFontService,sans-serif" font-weight="400" font-size="55" transform="matrix(1 0 0 1 2878.71 1654)">선택</text><path d="M3177 1357.43C3177 1332.89 3196.89 1313 3221.43 1313L3633.57 1313C3658.11 1313 3678 1332.89 3678 1357.43L3678 1736.57C3678 1761.11 3658.11 1781 3633.57 1781L3221.43 1781C3196.89 1781 3177 1761.11 3177 1736.57Z" fill="#E8F2FC" fill-rule="evenodd"/><text fill="#1F4068" font-family="Pretendard,Pretendard_MSFontService,sans-serif" font-weight="700" font-size="67" transform="matrix(1 0 0 1 3303.65 1464)">후보</text><text fill="#1F4068" font-family="Pretendard,Pretendard_MSFontService,sans-serif" font-weight="700" font-size="67" transform="matrix(1 0 0 1 3434.85 1464)">생성</text><text fill="#2A313A" font-family="Pretendard,Pretendard_MSFontService,sans-serif" font-weight="400" font-size="55" transform="matrix(1 0 0 1 3294.49 1587)">학습</text><text fill="#2A313A" font-family="Pretendard,Pretendard_MSFontService,sans-serif" font-weight="400" font-size="55" transform="matrix(1 0 0 1 3403.34 1587)">범위</text><text fill="#2A313A" font-family="Pretendard,Pretendard_MSFontService,sans-serif" font-weight="400" font-size="55" transform="matrix(1 0 0 1 3512.2 1587)">내</text><text fill="#2A313A" font-family="Pretendard,Pretendard_MSFontService,sans-serif" font-weight="400" font-size="55" transform="matrix(1 0 0 1 3261.83 1653)">후보</text><text fill="#2A313A" font-family="Pretendard,Pretendard_MSFontService,sans-serif" font-weight="400" font-size="55" transform="matrix(1 0 0 1 3370.69 1653)">X 50</text><text fill="#2A313A" font-family="Pretendard,Pretendard_MSFontService,sans-serif" font-weight="400" font-size="55" transform="matrix(1 0 0 1 3483.55 1653)">만</text><text fill="#2A313A" font-family="Pretendard,Pretendard_MSFontService,sans-serif" font-weight="400" font-size="55" transform="matrix(1 0 0 1 3544.85 1653)">개</text><path d="M3769 1363.53C3769 1335.62 3791.62 1313 3819.52 1313L4219.47 1313C4247.38 1313 4270 1335.62 4270 1363.53L4270 1730.47C4270 1758.38 4247.38 1781 4219.47 1781L3819.52 1781C3791.62 1781 3769 1758.38 3769 1730.47Z" fill="#E8F2FC" fill-rule="evenodd"/><text fill="#1F4068" font-family="Pretendard,Pretendard_MSFontService,sans-serif" font-weight="700" font-size="67" transform="matrix(1 0 0 1 3873.82 1468)">Valid </text><text fill="#1F4068" font-family="Pretendard,Pretendard_MSFontService,sans-serif" font-weight="700" font-size="67" transform="matrix(1 0 0 1 4050.28 1468)">필터</text><text fill="#2A313A" font-family="Pretendard,Pretendard_MSFontService,sans-serif" font-weight="400" font-size="55" transform="matrix(1 0 0 1 3906.48 1587)">Classifier</text><text fill="#2A313A" font-family="Pretendard,Pretendard_MSFontService,sans-serif" font-weight="400" font-size="55" transform="matrix(1 0 0 1 3866.95 1653)">P(Valid)≥0.5</text><path d="M4362 1360.48C4362 1334.26 4383.26 1313 4409.48 1313L4815.52 1313C4841.74 1313 4863 1334.26 4863 1360.48L4863 1733.52C4863 1759.74 4841.74 1781 4815.52 1781L4409.48 1781C4383.26 1781 4362 1759.74 4362 1733.52Z" fill="#E8F2FC" fill-rule="evenodd"/><text fill="#1F4068" font-family="Pretendard,Pretendard_MSFontService,sans-serif" font-weight="700" font-size="67" transform="matrix(1 0 0 1 4415.35 1464)">Forward </text><text fill="#1F4068" font-family="Pretendard,Pretendard_MSFontService,sans-serif" font-weight="700" font-size="67" transform="matrix(1 0 0 1 4694.36 1464)">예측</text><text fill="#2A313A" font-family="Pretendard,Pretendard_MSFontService,sans-serif" font-weight="400" font-size="55" transform="matrix(1 0 0 1 4439.98 1594)">4</text><text fill="#2A313A" font-family="Pretendard,Pretendard_MSFontService,sans-serif" font-weight="400" font-size="55" transform="matrix(1 0 0 1 4474.36 1594)">개</text><text fill="#2A313A" font-family="Pretendard,Pretendard_MSFontService,sans-serif" font-weight="400" font-size="55" transform="matrix(1 0 0 1 4521.91 1594)"> </text><text fill="#2A313A" font-family="Pretendard,Pretendard_MSFontService,sans-serif" font-weight="400" font-size="55" transform="matrix(1 0 0 1 4535.66 1594)">Regressor</text><text fill="#2A313A" font-family="Pretendard,Pretendard_MSFontService,sans-serif" font-weight="400" font-size="55" transform="matrix(1 0 0 1 4539.4 1660)">X </text><text fill="#2A313A" font-family="Pretendard,Pretendard_MSFontService,sans-serif" font-weight="400" font-size="55" transform="matrix(1 0 0 1 4586.95 1660)">→</text><text fill="#404040" font-family="Pretendard,Pretendard_MSFontService,sans-serif" font-weight="400" font-size="55" transform="matrix(1 0 0 1 4637.37 1660)"> </text><text fill="#404040" font-family="Pretendard,Pretendard_MSFontService,sans-serif" font-weight="400" font-size="55" transform="matrix(1 0 0 1 4651.12 1660)">Ŷ</text><path d="M4955 1357.86C4955 1333.09 4975.09 1313 4999.86 1313L5411.14 1313C5435.91 1313 5456 1333.09 5456 1357.86L5456 1736.14C5456 1760.91 5435.91 1781 5411.14 1781L4999.86 1781C4975.09 1781 4955 1760.91 4955 1736.14Z" fill="#FDEADA" fill-rule="evenodd"/><text fill="#1F4068" font-family="Pretendard,Pretendard_MSFontService,sans-serif" font-weight="700" font-size="67" transform="matrix(1 0 0 1 5045.39 1462)">계산</text><text fill="#1F4068" font-family="Pretendard,Pretendard_MSFontService,sans-serif" font-weight="700" font-size="67" transform="matrix(1 0 0 1 5176.59 1462)">및</text><text fill="#1F4068" font-family="Pretendard,Pretendard_MSFontService,sans-serif" font-weight="700" font-size="67" transform="matrix(1 0 0 1 5249.92 1462)">추천</text><text fill="#2A313A" font-family="Pretendard,Pretendard_MSFontService,sans-serif" font-weight="400" font-size="55" transform="matrix(1 0 0 1 5026.44 1555)">오차</text><text fill="#2A313A" font-family="Pretendard,Pretendard_MSFontService,sans-serif" font-weight="400" font-size="55" transform="matrix(1 0 0 1 5121.55 1555)"> </text><text fill="#2A313A" font-family="Pretendard,Pretendard_MSFontService,sans-serif" font-weight="400" font-size="55" transform="matrix(1 0 0 1 5135.3 1555)">Score </text><text fill="#2A313A" font-family="Pretendard,Pretendard_MSFontService,sans-serif" font-weight="400" font-size="55" transform="matrix(1 0 0 1 5291.13 1555)">계산</text><text fill="#2A313A" font-family="Pretendard,Pretendard_MSFontService,sans-serif" font-weight="400" font-size="55" transform="matrix(1 0 0 1 5386.24 1555)">,</text><text fill="#2A313A" font-family="Pretendard,Pretendard_MSFontService,sans-serif" font-weight="400" font-size="55" transform="matrix(1 0 0 1 5087.75 1621)">최소</text><text fill="#2A313A" font-family="Pretendard,Pretendard_MSFontService,sans-serif" font-weight="400" font-size="55" transform="matrix(1 0 0 1 5182.85 1621)"> </text><text fill="#2A313A" font-family="Pretendard,Pretendard_MSFontService,sans-serif" font-weight="400" font-size="55" transform="matrix(1 0 0 1 5196.6 1621)">오차인</text><text fill="#2A313A" font-family="Pretendard,Pretendard_MSFontService,sans-serif" font-weight="400" font-size="55" transform="matrix(1 0 0 1 5026.72 1687)">Top </text><text fill="#2A313A" font-family="Pretendard,Pretendard_MSFontService,sans-serif" font-weight="400" font-size="55" transform="matrix(1 0 0 1 5132.71 1687)">1 </text><text fill="#2A313A" font-family="Pretendard,Pretendard_MSFontService,sans-serif" font-weight="400" font-size="55" transform="matrix(1 0 0 1 5170.52 1687)">레시피</text><text fill="#2A313A" font-family="Pretendard,Pretendard_MSFontService,sans-serif" font-weight="400" font-size="55" transform="matrix(1 0 0 1 5313.18 1687)"> </text><text fill="#2A313A" font-family="Pretendard,Pretendard_MSFontService,sans-serif" font-weight="400" font-size="55" transform="matrix(1 0 0 1 5326.93 1687)">X</text><text fill="#2A313A" font-family="Pretendard,Pretendard_MSFontService,sans-serif" font-weight="400" font-size="55" transform="matrix(1 0 0 1 5360.73 1687)"> </text><text fill="#2A313A" font-family="Pretendard,Pretendard_MSFontService,sans-serif" font-weight="400" font-size="55" transform="matrix(1 0 0 1 5374.48 1687)">*</text><path d="M3085 1544.25 3153.93 1544.25 3153.93 1549.75 3085 1549.75ZM3149.34 1533.25 3176.84 1547 3149.34 1560.75Z" fill="#9DA8B6"/><text fill="#626C7B" font-family="Pretendard,Pretendard_MSFontService,sans-serif" font-weight="400" font-size="60" transform="matrix(1 0 0 1 2636.75 2044)">X* = </text><text fill="#626C7B" font-family="Pretendard,Pretendard_MSFontService,sans-serif" font-weight="400" font-size="60" transform="matrix(1 0 0 1 2768.52 2044)">arg</text><text fill="#626C7B" font-family="Pretendard,Pretendard_MSFontService,sans-serif" font-weight="400" font-size="60" transform="matrix(1 0 0 1 2870.5 2044)">min S</text><text fill="#626C7B" font-family="Pretendard,Pretendard_MSFontService,sans-serif" font-weight="400" font-size="60" transform="matrix(1 0 0 1 3017.74 2044)">(</text><text fill="#626C7B" font-family="Pretendard,Pretendard_MSFontService,sans-serif" font-weight="400" font-size="60" transform="matrix(1 0 0 1 3052.68 2044)">Ŷ</text><text fill="#626C7B" font-family="Pretendard,Pretendard_MSFontService,sans-serif" font-weight="400" font-size="60" transform="matrix(1 0 0 1 3090.5 2044)">, Y* )   →   </text><text fill="#626C7B" font-family="Pretendard,Pretendard_MSFontService,sans-serif" font-weight="400" font-size="60" transform="matrix(1 0 0 1 3365.5 2044)">탐색은</text><text fill="#626C7B" font-family="Pretendard,Pretendard_MSFontService,sans-serif" font-weight="400" font-size="60" transform="matrix(1 0 0 1 3535.08 2044)">빠른</text><text fill="#626C7B" font-family="Pretendard,Pretendard_MSFontService,sans-serif" font-weight="400" font-size="60" transform="matrix(1 0 0 1 3653.1 2044)">Random Forest surrogate</text><text fill="#626C7B" font-family="Pretendard,Pretendard_MSFontService,sans-serif" font-weight="400" font-size="60" transform="matrix(1 0 0 1 4329.72 2044)">에서</text><text fill="#626C7B" font-family="Pretendard,Pretendard_MSFontService,sans-serif" font-weight="400" font-size="60" transform="matrix(1 0 0 1 4447.74 2044)">수행하고</text><text fill="#626C7B" font-family="Pretendard,Pretendard_MSFontService,sans-serif" font-weight="400" font-size="60" transform="matrix(1 0 0 1 4653.99 2044)">, </text><text fill="#626C7B" font-family="Pretendard,Pretendard_MSFontService,sans-serif" font-weight="400" font-size="60" transform="matrix(1 0 0 1 4684.35 2044)">최종</text><text fill="#626C7B" font-family="Pretendard,Pretendard_MSFontService,sans-serif" font-weight="400" font-size="60" transform="matrix(1 0 0 1 4802.37 2044)">후보만</text><text fill="#626C7B" font-family="Pretendard,Pretendard_MSFontService,sans-serif" font-weight="400" font-size="60" transform="matrix(1 0 0 1 4971.95 2044)">TCAD</text><text fill="#626C7B" font-family="Pretendard,Pretendard_MSFontService,sans-serif" font-weight="400" font-size="60" transform="matrix(1 0 0 1 5128.93 2044)">로</text><text fill="#626C7B" font-family="Pretendard,Pretendard_MSFontService,sans-serif" font-weight="400" font-size="60" transform="matrix(1 0 0 1 5195.39 2044)">재검증</text><g clip-path="url(#clip1)"><g filter="url(#fx0)" transform="translate(2148 1520)"><g><path d="M17.5002 77.6964 181.097 77.6964 181.097 19.8004 326.5 140.801 181.097 261.8 181.097 203.904 17.5002 203.904Z" stroke="#10253F" stroke-width="3" stroke-miterlimit="8" fill="#1F4068" fill-rule="evenodd"/></g></g></g><path d="M2165.5 1589.4 2329.1 1589.4 2329.1 1531.5 2474.5 1652.5 2329.1 1773.5 2329.1 1715.6 2165.5 1715.6Z" stroke="#10253F" stroke-width="3.4375" stroke-miterlimit="8" fill="#1F4068" fill-rule="evenodd"/><path d="M3678 1544.25 3746.93 1544.25 3746.93 1549.75 3678 1549.75ZM3742.34 1533.25 3769.84 1547 3742.34 1560.75Z" fill="#9DA8B6"/><path d="M4270 1544.25 4338.93 1544.25 4338.93 1549.75 4270 1549.75ZM4334.34 1533.25 4361.84 1547 4334.34 1560.75Z" fill="#9DA8B6"/><path d="M4863 1544.25 4931.93 1544.25 4931.93 1549.75 4863 1549.75ZM4927.34 1533.25 4954.84 1547 4927.34 1560.75Z" fill="#9DA8B6"/><text fill="#C00000" font-family="Pretendard,Pretendard_MSFontService,sans-serif" font-weight="700" font-size="92" transform="matrix(1 0 0 1 535.66 913)">&lt;  </text><text fill="#C00000" font-family="Pretendard,Pretendard_MSFontService,sans-serif" font-weight="700" font-size="92" transform="matrix(1 0 0 1 638.212 913)">직접적인</text><text fill="#C00000" font-family="Pretendard,Pretendard_MSFontService,sans-serif" font-weight="700" font-size="92" transform="matrix(1 0 0 1 975.66 913)">Y </text><text fill="#C00000" font-family="Pretendard,Pretendard_MSFontService,sans-serif" font-weight="700" font-size="92" transform="matrix(1 0 0 1 1060.45 913)">→ </text><text fill="#C00000" font-family="Pretendard,Pretendard_MSFontService,sans-serif" font-weight="700" font-size="92" transform="matrix(1 0 0 1 1166.44 913)">X </text><text fill="#C00000" font-family="Pretendard,Pretendard_MSFontService,sans-serif" font-weight="700" font-size="92" transform="matrix(1 0 0 1 1250.66 913)">역회귀</text><text fill="#C00000" font-family="Pretendard,Pretendard_MSFontService,sans-serif" font-weight="700" font-size="92" transform="matrix(1 0 0 1 1509.05 913)">방식의</text><text fill="#C00000" font-family="Pretendard,Pretendard_MSFontService,sans-serif" font-weight="700" font-size="92" transform="matrix(1 0 0 1 1767.43 913)">한계</text><text fill="#C00000" font-family="Pretendard,Pretendard_MSFontService,sans-serif" font-weight="700" font-size="92" transform="matrix(1 0 0 1 1967.95 913)">&gt;</text></g></svg>